<svg xmlns="http://www.w3.org/2000/svg" version="1.1" xmlns:xlink="http://www.w3.org/1999/xlink" id="Layer_1" x="0px" y="0px" viewBox="0 0 113 113" style="enable-background:new 0 0 577.4 112.84;" xml:space="preserve" width="113" height="113"><metadata><rdf:RDF xmlns:rdf="http://www.w3.org/1999/02/22-rdf-syntax-ns#" xmlns:dc="http://purl.org/dc/elements/1.1/"><rdf:Description><dc:creator>RealFaviconGenerator</dc:creator><dc:source>https://realfavicongenerator.net</dc:source></rdf:Description></rdf:RDF></metadata><style type="text/css">
	.st0{fill:#06B299;}
	.st1{fill:url(#SVGID_1_);}
	.st2{fill:url(#SVGID_2_);}
	.st3{fill:url(#SVGID_3_);}
	.st4{fill:url(#SVGID_4_);}
	.st5{fill:url(#SVGID_5_);}
	.st6{fill:#56595A;}
	.st7{fill:url(#SVGID_6_);}
	.st8{fill:url(#SVGID_7_);}
	.st9{fill:url(#SVGID_8_);}
</style><g>
	<g>
		<path class="st0" d="M112.82,22.54c0-12.43-10.12-22.54-22.54-22.54H22.55C10.12,0,0,10.12,0,22.55l0.01,90.29h14.9l0.01-66.28    V22.54c-0.01-4.21,3.42-7.64,7.64-7.64h67.73c2.11-0.01,4.01,0.84,5.4,2.23c1.38,1.39,2.25,3.3,2.24,5.41v67.73    c0,3.36-2.17,6.22-5.19,7.24c-0.77,0.27-1.6,0.4-2.46,0.4H70.55v14.9h19.72c0.83,0,1.65-0.04,2.46-0.13    c11.29-1.23,20.1-10.81,20.09-22.41V74.61c0-0.01,0.01-0.02,0.01-0.02L112.82,22.54z"></path>
		<linearGradient id="SVGID_1_" gradientUnits="userSpaceOnUse" x1="14.7591" y1="48.1963" x2="29.0207" y2="14.6183">
			<stop offset="0.1854" style="stop-color:#06B299"></stop>
			<stop offset="1" style="stop-color:#006766"></stop>
		</linearGradient>
		<path class="st1" d="M0,22.55l0,90.29l14.9,0l0-90.29c0-4.21,3.43-7.65,7.65-7.65C24.04,5.78,37.63,0.24,38.21,0.01L22.55,0    C10.12,0,0,10.11,0,22.55z"></path>
		<linearGradient id="SVGID_2_" gradientUnits="userSpaceOnUse" x1="97.6771" y1="84.9631" x2="96.7745" y2="102.1132">
			<stop offset="0" style="stop-color:#006766"></stop>
			<stop offset="0.8146" style="stop-color:#06B299"></stop>
		</linearGradient>
		<path class="st2" d="M90.27,112.82h-8.73l0-14.9l8.73,0c4.21,0,7.65-3.43,7.65-7.65c9.12-1.49,14.66-15.08,14.89-15.66l0.01,15.66    C112.82,102.7,102.7,112.82,90.27,112.82z"></path>
		<g>
			<g>
				<linearGradient id="SVGID_3_" gradientUnits="userSpaceOnUse" x1="56.4147" y1="112.8138" x2="56.4147" y2="51.94">
					<stop offset="0" style="stop-color:#03495B"></stop>
					<stop offset="1" style="stop-color:#1A7083"></stop>
				</linearGradient>
				<polygon class="st3" points="67.5,51.94 67.5,112.81 45.33,112.81 45.33,64.3     "></polygon>
			</g>
			<g>
				<linearGradient id="SVGID_4_" gradientUnits="userSpaceOnUse" x1="31.1843" y1="112.8355" x2="31.1843" y2="73.2134">
					<stop offset="0" style="stop-color:#03495B"></stop>
					<stop offset="1" style="stop-color:#1A7083"></stop>
				</linearGradient>
				<polygon class="st4" points="42.27,73.21 42.27,112.84 20.14,112.84 20.12,112.81 20.1,112.79 20.1,85.57     "></polygon>
				<linearGradient id="SVGID_5_" gradientUnits="userSpaceOnUse" x1="81.638" y1="112.8138" x2="81.638" y2="30.6667">
					<stop offset="0" style="stop-color:#03495B"></stop>
					<stop offset="1" style="stop-color:#1A7083"></stop>
				</linearGradient>
				<path class="st5" d="M92.73,30.67v82.02c-0.81,0.09-1.62,0.13-2.46,0.13H70.55V43.02L92.73,30.67z"></path>
			</g>
		</g>
		<path class="st0" d="M14.9,112.84"></path>
	</g>
	</g><style>@media (prefers-color-scheme: light) { :root { filter: none; } }
@media (prefers-color-scheme: dark) { :root { filter: none; } }
</style></svg>